<?xml version="1.0" encoding="UTF-8" standalone="no"?>
<!DOCTYPE svg PUBLIC "-//W3C//DTD SVG 1.1//EN" "http://www.w3.org/Graphics/SVG/1.1/DTD/svg11.dtd">
<!-- Created with Vectornator (http://vectornator.io/) -->
<svg height="100%" stroke-miterlimit="10" style="fill-rule:nonzero;clip-rule:evenodd;stroke-linecap:round;stroke-linejoin:round;" version="1.1" viewBox="0 0 400 400" width="100%" xml:space="preserve" xmlns="http://www.w3.org/2000/svg" xmlns:vectornator="http://vectornator.io" xmlns:xlink="http://www.w3.org/1999/xlink">
<defs/>
<g id="Untitled" vectornator:layerName="Untitled">
<path d="M0 200L0 0L200 0L400 0L400 200L400 400L200 400L0 400L0 200ZM221 241.32C225.36 240.2 228.8 239.04 231.2 237.84C242.88 231.96 251.08 220.96 253.8 207.44C255.24 200.24 254.2 189.88 251.4 183.4C249.6 179.28 249.04 178.2 247.84 176.16C241.76 166.12 231.68 158.04 220.44 154.2C215.68 152.6 216 152.16 216 159.76L216 166.28L218.72 167.16C226.76 169.76 233.48 175.8 237.24 183.8C239.16 187.84 239.88 191.04 240.24 197C241.12 211.68 232.68 223.92 219.28 227.36C214.96 228.52 207.92 228.72 185.04 228.52L162.72 228.28L162.88 226.44C163 225.04 165.16 220.36 171.56 207.6C179.32 191.96 183.92 183 187.72 175.84C188.52 174.32 189.2 172.92 189.2 172.72C189.2 172.56 186.44 172.4 183.08 172.4L176.96 172.4L175 176.52C170.96 185.12 162.76 201.84 148.28 231.16C145.48 236.76 143.12 241.6 143 241.92C142.84 242.36 148.6 242.44 180.32 242.28C216.32 242.12 217.92 242.08 221 241.32ZM209.96 184L209.96 144.8L174.36 144.8L138.8 144.8L138.8 151.4L138.8 158L167.04 158L195.32 158L195.2 169.92C195.12 176.44 195.08 191.12 195.12 202.52L195.2 223.2L202.6 223.2L210 223.2L209.96 184Z" fill="#d9d9d9" fill-rule="nonzero" opacity="0" stroke="none" vectornator:layerName="path"/>
<g opacity="1" vectornator:layerName="Oval 4">
<path d="M25 200C25 103.35 103.35 25 200 25C296.65 25 375 103.35 375 200C375 296.65 296.65 375 200 375C103.35 375 25 296.65 25 200Z" fill="#d9d9d9" fill-rule="nonzero" stroke="none"/>
<path d="M204.656 23.9062C199.588 23.7646 194.501 23.8379 189.438 24.125C170.462 25.2009 151.666 29.3484 134.062 36.5312C113.516 44.9151 94.6227 57.283 78.6562 72.6875C62.4062 88.3655 49.2066 107.146 40.0312 127.781C38.8623 130.41 37.6943 134.299 36.5312 138.594C38.0459 134.636 39.6667 130.741 41.4688 126.906C55.3642 97.3344 77.6076 71.9283 105.062 54.2188C126.533 40.3694 151.098 31.3022 176.406 27.8125C192.023 25.6591 207.969 25.6234 223.594 27.7188C241.542 30.1257 259.11 35.3547 275.438 43.1875C294.333 52.2522 311.517 64.7622 326 79.9062C340.849 95.4337 352.783 113.661 361.031 133.5C369.77 154.519 374.25 177.242 374.281 200C374.313 222.77 369.901 245.506 361.219 266.562C352.84 286.883 340.589 305.569 325.312 321.375C311.035 336.147 294.154 348.399 275.656 357.344C259.291 365.257 241.696 370.56 223.688 373.031C205.105 375.581 186.097 375.121 167.656 371.688C150.798 368.549 134.395 362.925 119.188 355C84.6549 337.004 56.6519 307.433 40.5625 271.969C33.2179 255.78 25 200 25 200C25 200 25.3778 213.923 26.1875 220.844C28.309 238.979 33.3288 256.76 40.9688 273.344C49.9941 292.934 62.657 310.814 78.125 325.844C92.9315 340.231 110.283 352.003 129.156 360.375C145.005 367.405 161.909 372.035 179.125 374.094C198.787 376.445 218.848 375.513 238.188 371.25C275.199 363.091 309.048 342.616 333.656 313.812C345.596 299.837 355.321 284.036 362.375 267.062C371.184 245.865 375.687 222.949 375.719 200C375.745 181.347 372.834 162.699 367.031 144.969C355.269 109.028 331.673 77.3574 300.719 55.6562C285.151 44.7423 267.83 36.3811 249.594 31C234.994 26.692 219.862 24.3311 204.656 23.9062ZM25 200C25 200 30.4933 160.892 36.5312 138.594C31.5326 151.654 28.074 165.312 26.3438 179.188C25.4819 186.099 25 200 25 200Z" fill="#7c8197" stroke="none"/>
</g>
<g opacity="1" vectornator:layerName="Oval 3">
<path d="M370 200C370 293.888 293.888 370 200 370C106.112 370 30 293.888 30 200C30 106.112 106.112 30 200 30C293.888 30 370 106.112 370 200Z" fill="#d9d9d9" fill-rule="nonzero" stroke="none"/>
<path d="M205.875 29.75C191.455 29.2404 176.997 30.5507 162.906 33.6562C126.949 41.5811 94.0643 61.4246 70.1562 89.4062C58.5555 102.984 49.1037 118.385 42.25 134.875C33.6909 155.469 29.3129 177.704 29.2812 200C29.2555 218.122 32.0821 236.243 37.7188 253.469C49.1452 288.389 72.0519 319.133 102.125 340.219C117.25 350.823 134.095 358.958 151.812 364.188C170.725 369.769 190.57 371.99 210.25 370.875C228.687 369.831 246.959 365.793 264.062 358.812C284.025 350.665 302.365 338.657 317.875 323.688C333.66 308.453 346.496 290.206 355.406 270.156C356.56 267.559 357.728 263.701 358.875 259.438C357.383 263.35 355.75 267.211 353.969 271C340.467 299.721 318.857 324.397 292.188 341.594C271.333 355.041 247.485 363.859 222.906 367.25C207.739 369.342 192.269 369.378 177.094 367.344C159.662 365.007 142.608 359.919 126.75 352.312C108.397 343.509 91.6922 331.365 77.625 316.656C63.2015 301.575 51.6057 283.831 43.5938 264.562C35.105 244.147 30.7504 222.105 30.7188 200C30.6871 177.883 34.9741 155.796 43.4062 135.344C51.5439 115.606 63.4436 97.4471 78.2812 82.0938C92.149 67.744 108.533 55.8763 126.5 47.1875C142.396 39.5002 159.476 34.3387 176.969 31.9375C195.019 29.4597 213.525 29.8844 231.438 33.2188C247.813 36.2671 263.727 41.7397 278.5 49.4375C312.046 66.9174 339.276 95.6447 354.906 130.094C362.042 145.82 370 200 370 200C370 200 369.63 186.473 368.844 179.75C366.783 162.133 361.921 144.86 354.5 128.75C345.733 109.718 333.432 92.3517 318.406 77.75C304.023 63.7726 287.147 52.3524 268.812 44.2188C253.416 37.3885 237.006 32.8761 220.281 30.875C215.506 30.3037 210.682 29.9199 205.875 29.75ZM370 200C370 200 364.714 237.739 358.875 259.438C363.692 246.812 367.013 233.627 368.688 220.219C369.526 213.505 370 200 370 200Z" fill="#b8b1a8" stroke="none"/>
</g>
<g opacity="1" vectornator:layerName="Group 1">
<g opacity="1" vectornator:layerName="Group 2">
<path d="M164.841 142.291L192.026 142.162L181.247 164.15L164.841 142.291Z" fill="#31333d" fill-rule="nonzero" opacity="1" stroke="none" vectornator:layerName="Polygon 1"/>
<path d="M102.29 269.439L95.2687 283.677L89.9873 294.325L118.631 294.325L235.196 294.325L235.196 269.439L179.337 269.439L130.872 269.439L102.29 269.439Z" fill="#31333d" fill-rule="nonzero" opacity="1" stroke="none"/>
<path d="M95.5024 283.425L164.711 142.402L186.49 153.302L117.281 294.325L95.5024 283.425" fill="#31333d" fill-rule="nonzero" opacity="1" stroke="none" vectornator:layerName="Rectangle 3"/>
<path d="M235.079 124.532L235.196 150.709C260.942 152.811 281.372 178.396 281.372 210.018C281.372 241.713 260.849 267.388 235.021 269.387L235.196 269.8L231.864 269.8L182.649 269.8C196.161 284.941 214.706 294.325 235.196 294.325C276.516 294.325 310.013 256.316 310.013 209.429C310.013 162.542 276.516 124.532 235.196 124.532C235.156 124.532 235.118 124.532 235.079 124.532Z" fill="#31333d" fill-rule="nonzero" opacity="1" stroke="none"/>
</g>
<g opacity="1" vectornator:layerName="Group 1">
<path d="M89.9873 105.675L222.788 105.675L222.788 130.2L89.9873 130.2L89.9873 105.675Z" fill="#31333d" fill-rule="nonzero" opacity="1" stroke="none" vectornator:layerName="Rectangle 1"/>
<path d="M222.788 124.034L222.788 257.983L198.472 257.983L198.472 124.034L222.788 124.034Z" fill="#31333d" fill-rule="nonzero" opacity="1" stroke="none" vectornator:layerName="Rectangle 7"/>
</g>
</g>
</g>
</svg>
